<svg width="22" height="20" viewBox="0 0 22 20" fill="none" xmlns="http://www.w3.org/2000/svg">
<path d="M8.52085 19.5629C7.8723 19.5629 7.25032 19.3053 6.79172 18.8467C6.33313 18.3881 6.07549 17.7661 6.07549 17.1175C6.07549 16.469 6.33313 15.847 6.79172 15.3884C7.25032 14.9298 7.8723 14.6722 8.52085 14.6722C9.16941 14.6722 9.79139 14.9298 10.25 15.3884C10.7086 15.847 10.9662 16.469 10.9662 17.1175C10.9662 17.7661 10.7086 18.3881 10.25 18.8467C9.79139 19.3053 9.16941 19.5629 8.52085 19.5629ZM17.0796 19.5629C16.4311 19.5629 15.8091 19.3053 15.3505 18.8467C14.8919 18.3881 14.6343 17.7661 14.6343 17.1175C14.6343 16.469 14.8919 15.847 15.3505 15.3884C15.8091 14.9298 16.4311 14.6722 17.0796 14.6722C17.7282 14.6722 18.3502 14.9298 18.8088 15.3884C19.2674 15.847 19.525 16.469 19.525 17.1175C19.525 17.7661 19.2674 18.3881 18.8088 18.8467C18.3502 19.3053 17.7282 19.5629 17.0796 19.5629ZM1.1383 2.35122C0.833073 2.34137 0.543639 2.2132 0.331207 1.99381C0.118775 1.77441 0 1.481 0 1.17561C0 0.870221 0.118775 0.576806 0.331207 0.357411C0.543639 0.138017 0.833073 0.0098448 1.1383 0L2.54561 0C3.64847 0 4.60216 0.765399 4.84181 1.84136L6.37383 8.73973C6.61347 9.81569 7.56716 10.5811 8.67002 10.5811H17.8548L19.6179 3.52622H8.19195C7.8896 3.51242 7.6042 3.3826 7.39511 3.16375C7.18603 2.94491 7.06935 2.65389 7.06935 2.35122C7.06935 2.04855 7.18603 1.75753 7.39511 1.53868C7.6042 1.31984 7.8896 1.19002 8.19195 1.17622H19.6179C19.9753 1.17611 20.3281 1.2575 20.6494 1.4142C20.9706 1.57089 21.2519 1.79876 21.4719 2.0805C21.6918 2.36223 21.8447 2.6904 21.9188 3.04007C21.9929 3.38974 21.9862 3.7517 21.8994 4.09843L20.1363 11.1509C20.0092 11.6597 19.7156 12.1115 19.3022 12.4343C18.8888 12.7571 18.3793 12.9324 17.8548 12.9323H8.67002C7.59992 12.9325 6.56178 12.5676 5.72704 11.898C4.89231 11.2285 4.3109 10.2942 4.07885 9.24959L2.54561 2.35122H1.1383Z" fill="#181725"/>
</svg>
