<svg width="20" height="20" viewBox="0 0 20 20" fill="none" xmlns="http://www.w3.org/2000/svg">
<path d="M7 7.236C7.53 7.711 8.232 8 9 8H11C11.7381 8.00102 12.4505 7.72888 13 7.236H7ZM7 7.236C6.45054 7.72888 5.73814 8.00102 5 8L7 7.236ZM6.05 2V1.95H6H3C2.72153 1.95 2.45445 2.06062 2.25754 2.25754C2.06063 2.45445 1.95 2.72152 1.95 3V5C1.95 5.27848 2.06063 5.54555 2.25754 5.74246C2.45445 5.93937 2.72153 6.05 3 6.05H5C5.27848 6.05 5.54555 5.93937 5.74247 5.74246C5.93938 5.54555 6.05 5.27848 6.05 5V2ZM3.01 7.95H2.96V8V17.965V18.015H3.01H5H5.05V17.965V13C5.05 12.4828 5.25545 11.9868 5.62114 11.6211C5.98684 11.2554 6.48283 11.05 7 11.05H9C9.51717 11.05 10.0132 11.2554 10.3789 11.6211C10.7446 11.9868 10.95 12.4828 10.95 13V17.965V18.015H11H17.013H17.063V17.965V8V7.95H17.013H15C14.2448 7.95 13.5545 7.66585 13.0334 7.19877L13 7.16884L12.9666 7.19878C12.4263 7.68342 11.7259 7.951 11.0001 7.95H11H9C8.24476 7.95 7.55454 7.66585 7.03337 7.19877L6.99999 7.16884L6.96662 7.19878C6.42634 7.68342 5.72586 7.951 5.00007 7.95H5H3.01ZM1.00817 7.17712C0.711731 6.90635 0.473701 6.57766 0.308902 6.21118C0.137674 5.83041 0.0494202 5.41757 0.0500029 5.00007V5V3C0.0500029 2.21761 0.360806 1.46727 0.914038 0.914035C1.46727 0.360803 2.21761 0.05 3 0.05H17C17.7824 0.05 18.5327 0.360803 19.086 0.914035C19.6392 1.46727 19.95 2.21761 19.95 3V5C19.95 5.86733 19.5764 6.64803 18.9795 7.18792L18.963 7.20281V7.225V17.965C18.963 18.4822 18.7576 18.9782 18.3919 19.3439C18.0262 19.7096 17.5302 19.915 17.013 19.915H9.373V19.9141L9.36371 19.9159C9.2438 19.9385 9.12203 19.95 8.99999 19.95H7C6.87798 19.95 6.75621 19.9385 6.63629 19.9159L6.63646 19.915H6.627H3.011C2.49383 19.915 1.99784 19.7096 1.63214 19.3439C1.26645 18.9782 1.061 18.4822 1.061 17.965V7.245V7.1243L1.00817 7.17712ZM9.05 13V12.95H9H7H6.95V13V17.965V18.015H7H9V17.966H9.05V17.965V17.915V13ZM12.05 2V1.95H12H8H7.95V2V5C7.95 5.27848 8.06063 5.54555 8.25754 5.74246C8.45445 5.93937 8.72153 6.05 9 6.05H11C11.2785 6.05 11.5456 5.93937 11.7425 5.74246C11.9394 5.54555 12.05 5.27848 12.05 5V2ZM14 1.95H13.95V2V5C13.95 5.27848 14.0606 5.54555 14.2575 5.74246C14.4545 5.93937 14.7215 6.05 15 6.05H17C17.2785 6.05 17.5456 5.93937 17.7425 5.74246C17.9394 5.54555 18.05 5.27848 18.05 5V3C18.05 2.72152 17.9394 2.45445 17.7425 2.25754C17.5456 2.06062 17.2785 1.95 17 1.95H14ZM14 11.05H15C15.252 11.05 15.4936 11.1501 15.6718 11.3282C15.8499 11.5064 15.95 11.748 15.95 12V15C15.95 15.252 15.8499 15.4936 15.6718 15.6718C15.4936 15.8499 15.252 15.95 15 15.95H14C13.748 15.95 13.5064 15.8499 13.3283 15.6718C13.1501 15.4936 13.05 15.252 13.05 15V12C13.05 11.748 13.1501 11.5064 13.3283 11.3282C13.5064 11.1501 13.748 11.05 14 11.05Z" fill="#181725" stroke="white" stroke-width="0.1"/>
</svg>
