<svg width="11" height="19" viewBox="0 0 11 19" fill="none" xmlns="http://www.w3.org/2000/svg">
<path d="M9.65991 15.8268C9.8946 16.0839 10.025 16.4223 10.0119 16.7741C10.0119 17.126 9.88156 17.4508 9.63384 17.708C9.39916 17.9516 9.07321 18.1005 8.73423 18.1005C8.39525 18.1005 8.0693 17.9787 7.82158 17.7351L0.442183 10.0749C0.324843 9.9531 0.233578 9.80422 0.168389 9.64182C0.1032 9.47941 0.0640869 9.30347 0.0640869 9.12753C0.0640869 8.95159 0.1032 8.77565 0.168389 8.59971C0.233578 8.43731 0.324843 8.28843 0.442183 8.16663L7.82158 0.506479C7.93892 0.384674 8.08234 0.276404 8.23879 0.208735C8.40829 0.141065 8.57778 0.100464 8.74727 0.100464C8.91676 0.100464 9.09929 0.127532 9.25574 0.195201C9.4122 0.26287 9.55561 0.371141 9.68599 0.492945C9.80333 0.61475 9.8946 0.777156 9.95978 0.939562C10.038 1.10197 10.0641 1.27791 10.0641 1.46738C10.0641 1.64332 10.025 1.81926 9.95978 1.98167C9.8946 2.14407 9.79029 2.29295 9.65991 2.42828L3.2062 9.12753L4.43175 10.3862L9.65991 15.8268Z" fill="#181725"/>
</svg>
