<svg width="18" height="14" viewBox="0 0 18 14" fill="none" xmlns="http://www.w3.org/2000/svg">
<path d="M17.3669 2.07565C17.3669 2.62789 17.1581 3.16108 16.7785 3.54193L7.95271 12.4158C7.55412 12.7967 7.02268 13.0252 6.47225 13.0252C5.92183 13.0252 5.39038 12.7967 5.01078 12.4158L0.588387 7.97887C0.208782 7.59802 0 7.06482 0 6.51259C0 5.96035 0.227763 5.4462 0.607367 5.0463C1.00595 4.66545 1.51842 4.45598 2.06884 4.43694C2.61927 4.43694 3.13173 4.64641 3.53032 5.02726L6.47225 7.97887L13.8366 0.590322C14.2352 0.209469 14.7476 0 15.2981 0C15.8485 0.0190426 16.3609 0.228512 16.7595 0.628407C17.1391 1.00926 17.3669 1.52341 17.3669 2.07565Z" fill="white"/>
</svg>
