<svg width="15" height="16" viewBox="0 0 15 16" fill="none" xmlns="http://www.w3.org/2000/svg">
<path d="M14.5445 13.197L14.5436 13.1961L10.1518 8.96431L10.1516 8.96408L9.15995 8.02113L14.5436 2.84665C14.6566 2.73806 14.7487 2.61699 14.8067 2.4831C14.8637 2.35156 14.8984 2.20795 14.8984 2.0632C14.8984 1.91154 14.876 1.76651 14.806 1.63116C14.7496 1.50148 14.6699 1.36955 14.5655 1.26923L14.5655 1.26918L14.5635 1.26746C14.4517 1.1707 14.3265 1.08272 14.188 1.02727C14.049 0.9716 13.8889 0.95 13.7423 0.95C13.5925 0.95 13.4441 0.98322 13.2978 1.03732L13.2978 1.0373L13.2966 1.0378C13.1581 1.09324 13.0323 1.18141 12.93 1.27975L6.73109 7.23788C6.62718 7.33775 6.54693 7.45925 6.48986 7.5909L6.48984 7.59089L6.48932 7.59221C6.4329 7.73319 6.39812 7.87645 6.39812 8.02133C6.39812 8.16608 6.43284 8.30968 6.48986 8.44123C6.54693 8.57288 6.62718 8.69438 6.73109 8.79425L12.93 14.7524L12.93 14.7524L12.931 14.7533C13.1493 14.9521 13.4356 15.0505 13.7313 15.0505C14.0294 15.0505 14.3155 14.9295 14.5217 14.7313C14.7389 14.5226 14.8544 14.2575 14.8546 13.9699C14.8659 13.6816 14.7503 13.4057 14.5445 13.197Z" fill="#B3B3B3" stroke="#B3B3B3" stroke-width="0.1"/>
<path d="M1.30391 2.80359L1.30483 2.8045L5.69665 7.03624L5.69689 7.03647L6.6885 7.97942L1.30487 13.1539C1.1919 13.2625 1.09978 13.3836 1.04174 13.5174C0.984717 13.649 0.95 13.7926 0.95 13.9373C0.95 14.089 0.97244 14.234 1.04244 14.3694C1.09885 14.4991 1.17858 14.631 1.28297 14.7313L1.28292 14.7314L1.2849 14.7331C1.39676 14.8299 1.522 14.9178 1.66045 14.9733C1.79946 15.0289 1.95952 15.0505 2.10617 15.0505C2.25596 15.0505 2.40431 15.0173 2.55064 14.9632L2.55065 14.9632L2.5519 14.9628C2.69034 14.9073 2.81611 14.8191 2.91843 14.7208L9.11736 8.76267C9.22127 8.6628 9.30152 8.5413 9.35859 8.40965L9.35861 8.40966L9.35913 8.40834C9.41555 8.26736 9.45033 8.1241 9.45033 7.97922C9.45033 7.83447 9.41561 7.69086 9.35859 7.55932C9.30152 7.42767 9.22127 7.30617 9.11737 7.2063L2.91843 1.24818L2.91844 1.24816L2.91744 1.24725C2.69911 1.04845 2.41287 0.950001 2.11712 0.950001C1.81906 0.950001 1.53294 1.07107 1.32678 1.26923C1.10959 1.47798 0.994076 1.74308 0.99381 2.03062C0.982566 2.31891 1.09813 2.59481 1.30391 2.80359Z" fill="#B3B3B3" stroke="#B3B3B3" stroke-width="0.1"/>
</svg>
