<svg width="18" height="18" viewBox="0 0 18 18" fill="none" xmlns="http://www.w3.org/2000/svg">
<path d="M17.1028 8.62971C17.1028 9.00554 16.9587 9.36885 16.6892 9.63193C16.426 9.90127 16.0626 10.0516 15.6866 10.0516H10.0221V15.7141C10.0221 16.0899 9.87167 16.4532 9.60223 16.7163C9.33905 16.9794 8.98188 17.1297 8.60592 17.1297C8.22995 17.1297 7.86651 16.9794 7.60334 16.7163C7.33389 16.4532 7.18351 16.0899 7.18351 15.7141V10.0516H1.51893C1.14296 10.0516 0.779525 9.90127 0.516348 9.63193C0.25317 9.36885 0.102783 9.00554 0.102783 8.62971C0.102783 8.25389 0.25317 7.89685 0.516348 7.6275C0.779525 7.36442 1.14296 7.21409 1.51893 7.21409H7.18351V1.5516C7.18351 1.17577 7.33389 0.812471 7.60334 0.549391C7.86651 0.280047 8.22995 0.129715 8.60592 0.129715C8.98188 0.129715 9.33905 0.280047 9.60223 0.549391C9.87167 0.812471 10.0221 1.17577 10.0221 1.5516V7.21409H15.6866C16.0626 7.21409 16.426 7.36442 16.6892 7.6275C16.9587 7.89685 17.1028 8.25389 17.1028 8.62971Z" fill="white"/>
</svg>
